<svg version="1.1" xmlns="http://www.w3.org/2000/svg" xmlns:xlink="http://www.w3.org/1999/xlink" width="1164" height="2495"><defs/><g><g transform="translate(10,5) scale(1,1)"><path fill="none" stroke="#000000" d="M 0 5 L 1144 5 L 1144 2480 L 0 2480 L 0 5" stroke-miterlimit="10"/></g><g transform="translate(10,5) scale(1,1)"><path fill="#ffffff" stroke="none" d="M 0 5 L 0 27 L 190.88427734375 27 L 201.88427734375 16 L 201.88427734375 5 L 0 5"/></g><g transform="translate(10,5) scale(1,1)"><path fill="none" stroke="#000000" d="M 0 5 L 0 27 L 190.88427734375 27 L 201.88427734375 16 L 201.88427734375 5 L 0 5 L 0 5" stroke-miterlimit="10"/></g><g transform="translate(10,5) scale(1,1)"><g><path fill="none" stroke="none"/><text fill="#000000" stroke="none" font-family="Arial" font-size="13px" font-style="normal" font-weight="normal" text-decoration="none" x="70.97900390625" y="22.5">SequenceDiagram1</text></g></g><g transform="translate(10,5) scale(1,1)"><g><path fill="none" stroke="none"/><text fill="#000000" stroke="none" font-family="Arial" font-size="13px" font-style="normal" font-weight="bold" text-decoration="none" x="5" y="22.5">interaction</text></g></g><g transform="translate(10,5) scale(1,1)"><rect fill="#C0C0C0" stroke="none" x="39" y="47" width="130.97265625" height="39" opacity="0.2"/></g><g transform="translate(10,5) scale(1,1)"><rect fill="#ffffff" stroke="none" x="32" y="40" width="130.97265625" height="39"/></g><g transform="translate(10,5) scale(1,1)"><path fill="none" stroke="#000000" d="M 32 40 L 162.97265625 40 L 162.97265625 79 L 32 79 L 32 40 Z Z" stroke-miterlimit="10"/></g><g transform="translate(10,5) scale(1,1)"><g><path fill="none" stroke="none"/><text fill="#000000" stroke="none" font-family="Arial" font-size="13px" font-style="normal" font-weight="bold" text-decoration="none" x="82.318603515625" y="59.5">Clerk</text></g></g><g transform="translate(10,5) scale(1,1)"><path fill="none" stroke="#000000" d="M 98.5 80 L 98.5 2456" stroke-miterlimit="10" stroke-dasharray="3"/></g><g transform="translate(10,5) scale(1,1)"><rect fill="#C0C0C0" stroke="none" x="375" y="47" width="102.09716796875" height="39" opacity="0.2"/></g><g transform="translate(10,5) scale(1,1)"><rect fill="#ffffff" stroke="none" x="368" y="40" width="102.09716796875" height="39"/></g><g transform="translate(10,5) scale(1,1)"><path fill="none" stroke="#000000" d="M 368 40 L 470.09716796875 40 L 470.09716796875 79 L 368 79 L 368 40 Z Z" stroke-miterlimit="10"/></g><g transform="translate(10,5) scale(1,1)"><g><path fill="none" stroke="none"/><text fill="#000000" stroke="none" font-family="Arial" font-size="13px" font-style="normal" font-weight="bold" text-decoration="none" x="380.03271484375" y="59.5">UserInterface</text></g></g><g transform="translate(10,5) scale(1,1)"><path fill="none" stroke="#000000" d="M 420.5 80 L 420.5 2448" stroke-miterlimit="10" stroke-dasharray="3"/></g><g transform="translate(10,5) scale(1,1)"><rect fill="#C0C0C0" stroke="none" x="695" y="47" width="82.5908203125" height="39" opacity="0.2"/></g><g transform="translate(10,5) scale(1,1)"><rect fill="#ffffff" stroke="none" x="688" y="40" width="82.5908203125" height="39"/></g><g transform="translate(10,5) scale(1,1)"><path fill="none" stroke="#000000" d="M 688 40 L 770.5908203125 40 L 770.5908203125 79 L 688 79 L 688 40 Z Z" stroke-miterlimit="10"/></g><g transform="translate(10,5) scale(1,1)"><g><path fill="none" stroke="none"/><text fill="#000000" stroke="none" font-family="Arial" font-size="13px" font-style="normal" font-weight="bold" text-decoration="none" x="700.035888671875" y="59.5">Processor</text></g></g><g transform="translate(10,5) scale(1,1)"><path fill="none" stroke="#000000" d="M 730.5 80 L 730.5 2448" stroke-miterlimit="10" stroke-dasharray="3"/></g><g transform="translate(10,5) scale(1,1)"><rect fill="#C0C0C0" stroke="none" x="991" y="47" width="78.25537109375" height="39" opacity="0.2"/></g><g transform="translate(10,5) scale(1,1)"><rect fill="#ffffff" stroke="none" x="984" y="40" width="78.25537109375" height="39"/></g><g transform="translate(10,5) scale(1,1)"><path fill="none" stroke="#000000" d="M 984 40 L 1062.25537109375 40 L 1062.25537109375 79 L 984 79 L 984 40 Z Z" stroke-miterlimit="10"/></g><g transform="translate(10,5) scale(1,1)"><g><path fill="none" stroke="none"/><text fill="#000000" stroke="none" font-family="Arial" font-size="13px" font-style="normal" font-weight="bold" text-decoration="none" x="994.582275390625" y="59.5">DataBase</text></g></g><g transform="translate(10,5) scale(1,1)"><path fill="none" stroke="#000000" d="M 1024.5 80 L 1024.5 2456" stroke-miterlimit="10" stroke-dasharray="3"/></g><g transform="translate(10,5) scale(1,1)"><path fill="none" stroke="#000000" d="M 98 104 L 413 104" stroke-miterlimit="10"/></g><g transform="translate(10,5) scale(1,1)"><path fill="#000000" stroke="none" d="M 402.83732514237585 108.20951775601598 L 413 104 L 402.83732514237585 99.79048224398402"/></g><g transform="translate(10,5) scale(1,1)"><path fill="none" stroke="#000000" d="M 402.83732514237585 108.20951775601598 L 413 104 L 402.83732514237585 99.79048224398402 L 402.83732514237585 108.20951775601598" stroke-miterlimit="10"/></g><g transform="translate(10,5) scale(1,1)"><g><path fill="none" stroke="none"/><text fill="#000000" stroke="none" font-family="Arial" font-size="13px" font-style="normal" font-weight="normal" text-decoration="none" x="196" y="101">1 : addNewApplicant</text></g></g><g transform="translate(10,5) scale(1,1)"><rect fill="#ffffff" stroke="none" x="413" y="104" width="13" height="48"/></g><g transform="translate(10,5) scale(1,1)"><path fill="none" stroke="#000000" d="M 413 104 L 426 104 L 426 152 L 413 152 L 413 104 Z Z" stroke-miterlimit="10"/></g><g transform="translate(10,5) scale(1,1)"><path fill="none" stroke="#000000" d="M 413 129 L 98 129" stroke-miterlimit="10" stroke-dasharray="3"/></g><g transform="translate(10,5) scale(1,1)"><path fill="none" stroke="#000000" d="M 108.16267485762415 124.79048224398402 L 98 129 L 108.16267485762415 133.209517756016" stroke-miterlimit="10"/></g><g transform="translate(10,5) scale(1,1)"><g><path fill="none" stroke="none"/><text fill="#000000" stroke="none" font-family="Arial" font-size="13px" font-style="normal" font-weight="normal" text-decoration="none" x="183" y="146">2 : displayApplicantForm</text></g></g><g transform="translate(10,5) scale(1,1)"><path fill="none" stroke="#000000" d="M 98 184 L 413 184" stroke-miterlimit="10"/></g><g transform="translate(10,5) scale(1,1)"><path fill="#000000" stroke="none" d="M 402.83732514237585 188.209517756016 L 413 184 L 402.83732514237585 179.790482243984"/></g><g transform="translate(10,5) scale(1,1)"><path fill="none" stroke="#000000" d="M 402.83732514237585 188.209517756016 L 413 184 L 402.83732514237585 179.790482243984 L 402.83732514237585 188.209517756016" stroke-miterlimit="10"/></g><g transform="translate(10,5) scale(1,1)"><g><path fill="none" stroke="none"/><text fill="#000000" stroke="none" font-family="Arial" font-size="13px" font-style="normal" font-weight="normal" text-decoration="none" x="183" y="180">3 : fillInNewApplicantInfo</text></g></g><g transform="translate(10,5) scale(1,1)"><rect fill="#ffffff" stroke="none" x="413" y="184" width="13" height="88"/></g><g transform="translate(10,5) scale(1,1)"><path fill="none" stroke="#000000" d="M 413 184 L 426 184 L 426 272 L 413 272 L 413 184 Z Z" stroke-miterlimit="10"/></g><g transform="translate(10,5) scale(1,1)"><path fill="none" stroke="#000000" d="M 426 200 L 723 200" stroke-miterlimit="10"/></g><g transform="translate(10,5) scale(1,1)"><path fill="#000000" stroke="none" d="M 712.8373251423759 204.209517756016 L 723 200 L 712.8373251423758 195.790482243984"/></g><g transform="translate(10,5) scale(1,1)"><path fill="none" stroke="#000000" d="M 712.8373251423759 204.209517756016 L 723 200 L 712.8373251423758 195.790482243984 L 712.8373251423759 204.209517756016" stroke-miterlimit="10"/></g><g transform="translate(10,5) scale(1,1)"><g><path fill="none" stroke="none"/><text fill="#000000" stroke="none" font-family="Arial" font-size="13px" font-style="normal" font-weight="normal" text-decoration="none" x="501" y="197">4 : passNewApplicantInfo</text></g></g><g transform="translate(10,5) scale(1,1)"><rect fill="#ffffff" stroke="none" x="723" y="200" width="13" height="40"/></g><g transform="translate(10,5) scale(1,1)"><path fill="none" stroke="#000000" d="M 723 200 L 736 200 L 736 240 L 723 240 L 723 200 Z Z" stroke-miterlimit="10"/></g><g transform="translate(10,5) scale(1,1)"><path fill="none" stroke="#000000" d="M 736 216 L 1017 216" stroke-miterlimit="10"/></g><g transform="translate(10,5) scale(1,1)"><path fill="#000000" stroke="none" d="M 1006.8373251423759 220.209517756016 L 1017 216 L 1006.8373251423758 211.790482243984"/></g><g transform="translate(10,5) scale(1,1)"><path fill="none" stroke="#000000" d="M 1006.8373251423759 220.209517756016 L 1017 216 L 1006.8373251423758 211.790482243984 L 1006.8373251423759 220.209517756016" stroke-miterlimit="10"/></g><g transform="translate(10,5) scale(1,1)"><g><path fill="none" stroke="none"/><text fill="#000000" stroke="none" font-family="Arial" font-size="13px" font-style="normal" font-weight="normal" text-decoration="none" x="818" y="213">5 : insertNewRecord</text></g></g><g transform="translate(10,5) scale(1,1)"><rect fill="#ffffff" stroke="none" x="1017" y="216" width="13" height="28"/></g><g transform="translate(10,5) scale(1,1)"><path fill="none" stroke="#000000" d="M 1017 216 L 1030 216 L 1030 244 L 1017 244 L 1017 216 Z Z" stroke-miterlimit="10"/></g><g transform="translate(10,5) scale(1,1)"><path fill="none" stroke="#000000" d="M 723 232 L 426 232" stroke-miterlimit="10" stroke-dasharray="3"/></g><g transform="translate(10,5) scale(1,1)"><path fill="none" stroke="#000000" d="M 436.16267485762415 227.790482243984 L 426 232 L 436.16267485762415 236.209517756016" stroke-miterlimit="10"/></g><g transform="translate(10,5) scale(1,1)"><g><path fill="none" stroke="none"/><text fill="#000000" stroke="none" font-family="Arial" font-size="13px" font-style="normal" font-weight="normal" text-decoration="none" x="513" y="249">6 : newRecordAdded</text></g></g><g transform="translate(10,5) scale(1,1)"><path fill="none" stroke="#000000" d="M 413 264 L 98 264" stroke-miterlimit="10" stroke-dasharray="3"/></g><g transform="translate(10,5) scale(1,1)"><path fill="none" stroke="#000000" d="M 108.16267485762415 259.790482243984 L 98 264 L 108.16267485762415 268.209517756016" stroke-miterlimit="10"/></g><g transform="translate(10,5) scale(1,1)"><g><path fill="none" stroke="none"/><text fill="#000000" stroke="none" font-family="Arial" font-size="13px" font-style="normal" font-weight="normal" text-decoration="none" x="157" y="281">7 : newRecordAddedConfirmation</text></g></g><g transform="translate(10,5) scale(1,1)"><path fill="none" stroke="#000000" d="M 98 312 L 413 312" stroke-miterlimit="10"/></g><g transform="translate(10,5) scale(1,1)"><path fill="#000000" stroke="none" d="M 402.83732514237585 316.209517756016 L 413 312 L 402.83732514237585 307.790482243984"/></g><g transform="translate(10,5) scale(1,1)"><path fill="none" stroke="#000000" d="M 402.83732514237585 316.209517756016 L 413 312 L 402.83732514237585 307.790482243984 L 402.83732514237585 316.209517756016" stroke-miterlimit="10"/></g><g transform="translate(10,5) scale(1,1)"><g><path fill="none" stroke="none"/><text fill="#000000" stroke="none" font-family="Arial" font-size="13px" font-style="normal" font-weight="normal" text-decoration="none" x="204" y="309">8 : applyApplicant</text></g></g><g transform="translate(10,5) scale(1,1)"><rect fill="#ffffff" stroke="none" x="413" y="312" width="13" height="168"/></g><g transform="translate(10,5) scale(1,1)"><path fill="none" stroke="#000000" d="M 413 312 L 426 312 L 426 480 L 413 480 L 413 312 Z Z" stroke-miterlimit="10"/></g><g transform="translate(10,5) scale(1,1)"><path fill="none" stroke="#000000" d="M 426 328 L 723 328" stroke-miterlimit="10"/></g><g transform="translate(10,5) scale(1,1)"><path fill="#000000" stroke="none" d="M 712.8373251423759 332.209517756016 L 723 328 L 712.8373251423758 323.790482243984"/></g><g transform="translate(10,5) scale(1,1)"><path fill="none" stroke="#000000" d="M 712.8373251423759 332.209517756016 L 723 328 L 712.8373251423758 323.790482243984 L 712.8373251423759 332.209517756016" stroke-miterlimit="10"/></g><g transform="translate(10,5) scale(1,1)"><g><path fill="none" stroke="none"/><text fill="#000000" stroke="none" font-family="Arial" font-size="13px" font-style="normal" font-weight="normal" text-decoration="none" x="515" y="325">9 : applicantIdentifier</text></g></g><g transform="translate(10,5) scale(1,1)"><rect fill="#ffffff" stroke="none" x="723" y="328" width="13" height="152"/></g><g transform="translate(10,5) scale(1,1)"><path fill="none" stroke="#000000" d="M 723 328 L 736 328 L 736 480 L 723 480 L 723 328 Z Z" stroke-miterlimit="10"/></g><g transform="translate(10,5) scale(1,1)"><path fill="none" stroke="#000000" d="M 736 328 L 766 328 L 766 348 L 743 348" stroke-miterlimit="10"/></g><g transform="translate(10,5) scale(1,1)"><path fill="#000000" stroke="none" d="M 753.1626748576241 343.790482243984 L 743 348 L 753.1626748576241 352.209517756016"/></g><g transform="translate(10,5) scale(1,1)"><path fill="none" stroke="#000000" d="M 753.1626748576241 343.790482243984 L 743 348 L 753.1626748576241 352.209517756016 L 753.1626748576241 343.790482243984" stroke-miterlimit="10"/></g><g transform="translate(10,5) scale(1,1)"><g><path fill="none" stroke="none"/><text fill="#000000" stroke="none" font-family="Arial" font-size="13px" font-style="normal" font-weight="normal" text-decoration="none" x="736" y="325">10 : validateAgeEligibility</text></g></g><g transform="translate(10,5) scale(1,1)"><rect fill="#ffffff" stroke="none" x="730" y="348" width="13" height="31"/></g><g transform="translate(10,5) scale(1,1)"><path fill="none" stroke="#000000" d="M 730 348 L 743 348 L 743 379 L 730 379 L 730 348 Z Z" stroke-miterlimit="10"/></g><g transform="translate(10,5) scale(1,1)"><path fill="none" stroke="#000000" d="M 736 392 L 1017 392" stroke-miterlimit="10"/></g><g transform="translate(10,5) scale(1,1)"><path fill="#000000" stroke="none" d="M 1006.8373251423759 396.209517756016 L 1017 392 L 1006.8373251423758 387.790482243984"/></g><g transform="translate(10,5) scale(1,1)"><path fill="none" stroke="#000000" d="M 1006.8373251423759 396.209517756016 L 1017 392 L 1006.8373251423758 387.790482243984 L 1006.8373251423759 396.209517756016" stroke-miterlimit="10"/></g><g transform="translate(10,5) scale(1,1)"><g><path fill="none" stroke="none"/><text fill="#000000" stroke="none" font-family="Arial" font-size="13px" font-style="normal" font-weight="normal" text-decoration="none" x="797" y="389">11 : selectReservedSpaces</text></g></g><g transform="translate(10,5) scale(1,1)"><rect fill="#ffffff" stroke="none" x="1017" y="392" width="13" height="40"/></g><g transform="translate(10,5) scale(1,1)"><path fill="none" stroke="#000000" d="M 1017 392 L 1030 392 L 1030 432 L 1017 432 L 1017 392 Z Z" stroke-miterlimit="10"/></g><g transform="translate(10,5) scale(1,1)"><path fill="none" stroke="#000000" d="M 1017 422 L 736 422" stroke-miterlimit="10" stroke-dasharray="3"/></g><g transform="translate(10,5) scale(1,1)"><path fill="none" stroke="#000000" d="M 746.1626748576241 417.790482243984 L 736 422 L 746.1626748576241 426.209517756016" stroke-miterlimit="10"/></g><g transform="translate(10,5) scale(1,1)"><g><path fill="none" stroke="none"/><text fill="#000000" stroke="none" font-family="Arial" font-size="13px" font-style="normal" font-weight="normal" text-decoration="none" x="763" y="439">12 : numberOfSpacehasbeenReserved</text></g></g><g transform="translate(10,5) scale(1,1)"><path fill="none" stroke="#000000" d="M 723 448 L 426 448" stroke-miterlimit="10" stroke-dasharray="3"/></g><g transform="translate(10,5) scale(1,1)"><path fill="none" stroke="#000000" d="M 436.16267485762415 443.790482243984 L 426 448 L 436.16267485762415 452.209517756016" stroke-miterlimit="10"/></g><g transform="translate(10,5) scale(1,1)"><g><path fill="none" stroke="none"/><text fill="#000000" stroke="none" font-family="Arial" font-size="13px" font-style="normal" font-weight="normal" text-decoration="none" x="506" y="465">13 : letterOfAcceptance</text></g></g><g transform="translate(10,5) scale(1,1)"><path fill="none" stroke="#000000" d="M 413 466 L 98 466" stroke-miterlimit="10" stroke-dasharray="3"/></g><g transform="translate(10,5) scale(1,1)"><path fill="none" stroke="#000000" d="M 108.16267485762415 461.790482243984 L 98 466 L 108.16267485762415 470.209517756016" stroke-miterlimit="10"/></g><g transform="translate(10,5) scale(1,1)"><g><path fill="none" stroke="none"/><text fill="#000000" stroke="none" font-family="Arial" font-size="13px" font-style="normal" font-weight="normal" text-decoration="none" x="187" y="483">14 : letterOfAcceptance</text></g></g><g transform="translate(10,5) scale(1,1)"><path fill="none" stroke="#000000" d="M 98 528 L 413 528" stroke-miterlimit="10"/></g><g transform="translate(10,5) scale(1,1)"><path fill="#000000" stroke="none" d="M 402.83732514237585 532.209517756016 L 413 528 L 402.83732514237585 523.790482243984"/></g><g transform="translate(10,5) scale(1,1)"><path fill="none" stroke="#000000" d="M 402.83732514237585 532.209517756016 L 413 528 L 402.83732514237585 523.790482243984 L 402.83732514237585 532.209517756016" stroke-miterlimit="10"/></g><g transform="translate(10,5) scale(1,1)"><g><path fill="none" stroke="none"/><text fill="#000000" stroke="none" font-family="Arial" font-size="13px" font-style="normal" font-weight="normal" text-decoration="none" x="197" y="525">15 : lookupApplicant</text></g></g><g transform="translate(10,5) scale(1,1)"><rect fill="#ffffff" stroke="none" x="413" y="528" width="13" height="43"/></g><g transform="translate(10,5) scale(1,1)"><path fill="none" stroke="#000000" d="M 413 528 L 426 528 L 426 571 L 413 571 L 413 528 Z Z" stroke-miterlimit="10"/></g><g transform="translate(10,5) scale(1,1)"><path fill="none" stroke="#000000" d="M 413 560 L 98 560" stroke-miterlimit="10" stroke-dasharray="3"/></g><g transform="translate(10,5) scale(1,1)"><path fill="none" stroke="#000000" d="M 108.16267485762415 555.790482243984 L 98 560 L 108.16267485762415 564.209517756016" stroke-miterlimit="10"/></g><g transform="translate(10,5) scale(1,1)"><g><path fill="none" stroke="none"/><text fill="#000000" stroke="none" font-family="Arial" font-size="13px" font-style="normal" font-weight="normal" text-decoration="none" x="210" y="577">16 : lookupform</text></g></g><g transform="translate(10,5) scale(1,1)"><path fill="none" stroke="#000000" d="M 98 632 L 413 632" stroke-miterlimit="10"/></g><g transform="translate(10,5) scale(1,1)"><path fill="#000000" stroke="none" d="M 402.83732514237585 636.209517756016 L 413 632 L 402.83732514237585 627.790482243984"/></g><g transform="translate(10,5) scale(1,1)"><path fill="none" stroke="#000000" d="M 402.83732514237585 636.209517756016 L 413 632 L 402.83732514237585 627.790482243984 L 402.83732514237585 636.209517756016" stroke-miterlimit="10"/></g><g transform="translate(10,5) scale(1,1)"><g><path fill="none" stroke="none"/><text fill="#000000" stroke="none" font-family="Arial" font-size="13px" font-style="normal" font-weight="normal" text-decoration="none" x="193" y="629">17 : fillInLookupFileds</text></g></g><g transform="translate(10,5) scale(1,1)"><rect fill="#ffffff" stroke="none" x="413" y="632" width="13" height="128"/></g><g transform="translate(10,5) scale(1,1)"><path fill="none" stroke="#000000" d="M 413 632 L 426 632 L 426 760 L 413 760 L 413 632 Z Z" stroke-miterlimit="10"/></g><g transform="translate(10,5) scale(1,1)"><path fill="none" stroke="#000000" d="M 426 656 L 723 656" stroke-miterlimit="10"/></g><g transform="translate(10,5) scale(1,1)"><path fill="#000000" stroke="none" d="M 712.8373251423759 660.209517756016 L 723 656 L 712.8373251423758 651.790482243984"/></g><g transform="translate(10,5) scale(1,1)"><path fill="none" stroke="#000000" d="M 712.8373251423759 660.209517756016 L 723 656 L 712.8373251423758 651.790482243984 L 712.8373251423759 660.209517756016" stroke-miterlimit="10"/></g><g transform="translate(10,5) scale(1,1)"><g><path fill="none" stroke="none"/><text fill="#000000" stroke="none" font-family="Arial" font-size="13px" font-style="normal" font-weight="normal" text-decoration="none" x="502" y="653">18 : passLookupIdentifier</text></g></g><g transform="translate(10,5) scale(1,1)"><rect fill="#ffffff" stroke="none" x="723" y="656" width="13" height="88"/></g><g transform="translate(10,5) scale(1,1)"><path fill="none" stroke="#000000" d="M 723 656 L 736 656 L 736 744 L 723 744 L 723 656 Z Z" stroke-miterlimit="10"/></g><g transform="translate(10,5) scale(1,1)"><path fill="none" stroke="#000000" d="M 736 688 L 1017 688" stroke-miterlimit="10"/></g><g transform="translate(10,5) scale(1,1)"><path fill="#000000" stroke="none" d="M 1006.8373251423759 692.209517756016 L 1017 688 L 1006.8373251423758 683.790482243984"/></g><g transform="translate(10,5) scale(1,1)"><path fill="none" stroke="#000000" d="M 1006.8373251423759 692.209517756016 L 1017 688 L 1006.8373251423758 683.790482243984 L 1006.8373251423759 692.209517756016" stroke-miterlimit="10"/></g><g transform="translate(10,5) scale(1,1)"><g><path fill="none" stroke="none"/><text fill="#000000" stroke="none" font-family="Arial" font-size="13px" font-style="normal" font-weight="normal" text-decoration="none" x="820" y="685">19 : selectApplicant</text></g></g><g transform="translate(10,5) scale(1,1)"><rect fill="#ffffff" stroke="none" x="1017" y="688" width="13" height="48"/></g><g transform="translate(10,5) scale(1,1)"><path fill="none" stroke="#000000" d="M 1017 688 L 1030 688 L 1030 736 L 1017 736 L 1017 688 Z Z" stroke-miterlimit="10"/></g><g transform="translate(10,5) scale(1,1)"><path fill="none" stroke="#000000" d="M 1017 720 L 736 720" stroke-miterlimit="10" stroke-dasharray="3"/></g><g transform="translate(10,5) scale(1,1)"><path fill="none" stroke="#000000" d="M 746.1626748576241 715.790482243984 L 736 720 L 746.1626748576241 724.209517756016" stroke-miterlimit="10"/></g><g transform="translate(10,5) scale(1,1)"><g><path fill="none" stroke="none"/><text fill="#000000" stroke="none" font-family="Arial" font-size="13px" font-style="normal" font-weight="normal" text-decoration="none" x="818" y="737">20 : selectedRecord</text></g></g><g transform="translate(10,5) scale(1,1)"><path fill="none" stroke="#000000" d="M 723 728 L 426 728" stroke-miterlimit="10" stroke-dasharray="3"/></g><g transform="translate(10,5) scale(1,1)"><path fill="none" stroke="#000000" d="M 436.16267485762415 723.790482243984 L 426 728 L 436.16267485762415 732.209517756016" stroke-miterlimit="10"/></g><g transform="translate(10,5) scale(1,1)"><g><path fill="none" stroke="none"/><text fill="#000000" stroke="none" font-family="Arial" font-size="13px" font-style="normal" font-weight="normal" text-decoration="none" x="523" y="745">21 : lookupResult</text></g></g><g transform="translate(10,5) scale(1,1)"><path fill="none" stroke="#000000" d="M 413 752 L 98 752" stroke-miterlimit="10" stroke-dasharray="3"/></g><g transform="translate(10,5) scale(1,1)"><path fill="none" stroke="#000000" d="M 108.16267485762415 747.790482243984 L 98 752 L 108.16267485762415 756.209517756016" stroke-miterlimit="10"/></g><g transform="translate(10,5) scale(1,1)"><g><path fill="none" stroke="none"/><text fill="#000000" stroke="none" font-family="Arial" font-size="13px" font-style="normal" font-weight="normal" text-decoration="none" x="182" y="748">22 : displayLookupResult</text></g></g><g transform="translate(10,5) scale(1,1)"><path fill="none" stroke="#000000" d="M 98 800 L 413 800" stroke-miterlimit="10"/></g><g transform="translate(10,5) scale(1,1)"><path fill="#000000" stroke="none" d="M 402.83732514237585 804.209517756016 L 413 800 L 402.83732514237585 795.790482243984"/></g><g transform="translate(10,5) scale(1,1)"><path fill="none" stroke="#000000" d="M 402.83732514237585 804.209517756016 L 413 800 L 402.83732514237585 795.790482243984 L 402.83732514237585 804.209517756016" stroke-miterlimit="10"/></g><g transform="translate(10,5) scale(1,1)"><g><path fill="none" stroke="none"/><text fill="#000000" stroke="none" font-family="Arial" font-size="13px" font-style="normal" font-weight="normal" text-decoration="none" x="182" y="796">23 : updatedApplicantInfo</text></g></g><g transform="translate(10,5) scale(1,1)"><rect fill="#ffffff" stroke="none" x="413" y="800" width="13" height="112"/></g><g transform="translate(10,5) scale(1,1)"><path fill="none" stroke="#000000" d="M 413 800 L 426 800 L 426 912 L 413 912 L 413 800 Z Z" stroke-miterlimit="10"/></g><g transform="translate(10,5) scale(1,1)"><path fill="none" stroke="#000000" d="M 426 832 L 723 832" stroke-miterlimit="10"/></g><g transform="translate(10,5) scale(1,1)"><path fill="#000000" stroke="none" d="M 712.8373251423759 836.209517756016 L 723 832 L 712.8373251423758 827.790482243984"/></g><g transform="translate(10,5) scale(1,1)"><path fill="none" stroke="#000000" d="M 712.8373251423759 836.209517756016 L 723 832 L 712.8373251423758 827.790482243984 L 712.8373251423759 836.209517756016" stroke-miterlimit="10"/></g><g transform="translate(10,5) scale(1,1)"><g><path fill="none" stroke="none"/><text fill="#000000" stroke="none" font-family="Arial" font-size="13px" font-style="normal" font-weight="normal" text-decoration="none" x="501" y="829">24 : updatedApplicantInfo</text></g></g><g transform="translate(10,5) scale(1,1)"><rect fill="#ffffff" stroke="none" x="723" y="832" width="13" height="58"/></g><g transform="translate(10,5) scale(1,1)"><path fill="none" stroke="#000000" d="M 723 832 L 736 832 L 736 890 L 723 890 L 723 832 Z Z" stroke-miterlimit="10"/></g><g transform="translate(10,5) scale(1,1)"><path fill="none" stroke="#000000" d="M 736 856 L 1017 856" stroke-miterlimit="10"/></g><g transform="translate(10,5) scale(1,1)"><path fill="#000000" stroke="none" d="M 1006.8373251423759 860.209517756016 L 1017 856 L 1006.8373251423758 851.790482243984"/></g><g transform="translate(10,5) scale(1,1)"><path fill="none" stroke="#000000" d="M 1006.8373251423759 860.209517756016 L 1017 856 L 1006.8373251423758 851.790482243984 L 1006.8373251423759 860.209517756016" stroke-miterlimit="10"/></g><g transform="translate(10,5) scale(1,1)"><g><path fill="none" stroke="none"/><text fill="#000000" stroke="none" font-family="Arial" font-size="13px" font-style="normal" font-weight="normal" text-decoration="none" x="830" y="853">25 : alterRecord</text></g></g><g transform="translate(10,5) scale(1,1)"><rect fill="#ffffff" stroke="none" x="1017" y="856" width="13" height="28"/></g><g transform="translate(10,5) scale(1,1)"><path fill="none" stroke="#000000" d="M 1017 856 L 1030 856 L 1030 884 L 1017 884 L 1017 856 Z Z" stroke-miterlimit="10"/></g><g transform="translate(10,5) scale(1,1)"><path fill="none" stroke="#000000" d="M 723 872 L 426 872" stroke-miterlimit="10" stroke-dasharray="3"/></g><g transform="translate(10,5) scale(1,1)"><path fill="none" stroke="#000000" d="M 436.16267485762415 867.790482243984 L 426 872 L 436.16267485762415 876.209517756016" stroke-miterlimit="10"/></g><g transform="translate(10,5) scale(1,1)"><g><path fill="none" stroke="none"/><text fill="#000000" stroke="none" font-family="Arial" font-size="13px" font-style="normal" font-weight="normal" text-decoration="none" x="504" y="889">26 : updateConfirmation</text></g></g><g transform="translate(10,5) scale(1,1)"><path fill="none" stroke="#000000" d="M 413 896 L 98 896" stroke-miterlimit="10" stroke-dasharray="3"/></g><g transform="translate(10,5) scale(1,1)"><path fill="none" stroke="#000000" d="M 108.16267485762415 891.790482243984 L 98 896 L 108.16267485762415 900.209517756016" stroke-miterlimit="10"/></g><g transform="translate(10,5) scale(1,1)"><g><path fill="none" stroke="none"/><text fill="#000000" stroke="none" font-family="Arial" font-size="13px" font-style="normal" font-weight="normal" text-decoration="none" x="185" y="913">27 : updateConfirmation</text></g></g><g transform="translate(10,5) scale(1,1)"><path fill="none" stroke="#000000" d="M 98 964 L 413 964" stroke-miterlimit="10"/></g><g transform="translate(10,5) scale(1,1)"><path fill="#000000" stroke="none" d="M 402.83732514237585 968.209517756016 L 413 964 L 402.83732514237585 959.790482243984"/></g><g transform="translate(10,5) scale(1,1)"><path fill="none" stroke="#000000" d="M 402.83732514237585 968.209517756016 L 413 964 L 402.83732514237585 959.790482243984 L 402.83732514237585 968.209517756016" stroke-miterlimit="10"/></g><g transform="translate(10,5) scale(1,1)"><g><path fill="none" stroke="none"/><text fill="#000000" stroke="none" font-family="Arial" font-size="13px" font-style="normal" font-weight="normal" text-decoration="none" x="111" y="961">28 : submitCancellationRequest(CamperIdentifier)</text></g></g><g transform="translate(10,5) scale(1,1)"><rect fill="#ffffff" stroke="none" x="413" y="964" width="13" height="164"/></g><g transform="translate(10,5) scale(1,1)"><path fill="none" stroke="#000000" d="M 413 964 L 426 964 L 426 1128 L 413 1128 L 413 964 Z Z" stroke-miterlimit="10"/></g><g transform="translate(10,5) scale(1,1)"><path fill="none" stroke="#000000" d="M 426 976 L 723 976" stroke-miterlimit="10"/></g><g transform="translate(10,5) scale(1,1)"><path fill="#000000" stroke="none" d="M 712.8373251423759 980.209517756016 L 723 976 L 712.8373251423758 971.790482243984"/></g><g transform="translate(10,5) scale(1,1)"><path fill="none" stroke="#000000" d="M 712.8373251423759 980.209517756016 L 723 976 L 712.8373251423758 971.790482243984 L 712.8373251423759 980.209517756016" stroke-miterlimit="10"/></g><g transform="translate(10,5) scale(1,1)"><g><path fill="none" stroke="none"/><text fill="#000000" stroke="none" font-family="Arial" font-size="13px" font-style="normal" font-weight="normal" text-decoration="none" x="496" y="973">29 : passApplicantIdentifier</text></g></g><g transform="translate(10,5) scale(1,1)"><rect fill="#ffffff" stroke="none" x="723" y="976" width="13" height="80"/></g><g transform="translate(10,5) scale(1,1)"><path fill="none" stroke="#000000" d="M 723 976 L 736 976 L 736 1056 L 723 1056 L 723 976 Z Z" stroke-miterlimit="10"/></g><g transform="translate(10,5) scale(1,1)"><path fill="none" stroke="#000000" d="M 736 992 L 1017 992" stroke-miterlimit="10"/></g><g transform="translate(10,5) scale(1,1)"><path fill="#000000" stroke="none" d="M 1006.8373251423759 996.209517756016 L 1017 992 L 1006.8373251423758 987.790482243984"/></g><g transform="translate(10,5) scale(1,1)"><path fill="none" stroke="#000000" d="M 1006.8373251423759 996.209517756016 L 1017 992 L 1006.8373251423758 987.790482243984 L 1006.8373251423759 996.209517756016" stroke-miterlimit="10"/></g><g transform="translate(10,5) scale(1,1)"><g><path fill="none" stroke="none"/><text fill="#000000" stroke="none" font-family="Arial" font-size="13px" font-style="normal" font-weight="normal" text-decoration="none" x="808" y="989">30 : retriveApplicantInfo</text></g></g><g transform="translate(10,5) scale(1,1)"><rect fill="#ffffff" stroke="none" x="1017" y="992" width="13" height="28"/></g><g transform="translate(10,5) scale(1,1)"><path fill="none" stroke="#000000" d="M 1017 992 L 1030 992 L 1030 1020 L 1017 1020 L 1017 992 Z Z" stroke-miterlimit="10"/></g><g transform="translate(10,5) scale(1,1)"><path fill="none" stroke="#000000" d="M 1017 1011 L 736 1011" stroke-miterlimit="10" stroke-dasharray="3"/></g><g transform="translate(10,5) scale(1,1)"><path fill="none" stroke="#000000" d="M 746.1626748576241 1006.790482243984 L 736 1011 L 746.1626748576241 1015.209517756016" stroke-miterlimit="10"/></g><g transform="translate(10,5) scale(1,1)"><g><path fill="none" stroke="none"/><text fill="#000000" stroke="none" font-family="Arial" font-size="13px" font-style="normal" font-weight="normal" text-decoration="none" x="826" y="1028">31 : applicantInfo</text></g></g><g transform="translate(10,5) scale(1,1)"><path fill="none" stroke="#000000" d="M 736 1048 L 766 1048 L 766 1068 L 736 1068" stroke-miterlimit="10"/></g><g transform="translate(10,5) scale(1,1)"><path fill="#000000" stroke="none" d="M 746.1626748576241 1063.7904822439841 L 736 1068 L 746.1626748576241 1072.2095177560159"/></g><g transform="translate(10,5) scale(1,1)"><path fill="none" stroke="#000000" d="M 746.1626748576241 1063.7904822439841 L 736 1068 L 746.1626748576241 1072.2095177560159 L 746.1626748576241 1063.7904822439841" stroke-miterlimit="10"/></g><g transform="translate(10,5) scale(1,1)"><g><path fill="none" stroke="none"/><text fill="#000000" stroke="none" font-family="Arial" font-size="13px" font-style="normal" font-weight="normal" text-decoration="none" x="743" y="1085">32 : calculateRefundAmt</text></g></g><g transform="translate(10,5) scale(1,1)"><rect fill="#ffffff" stroke="none" x="723" y="1068" width="13" height="36"/></g><g transform="translate(10,5) scale(1,1)"><path fill="none" stroke="#000000" d="M 723 1068 L 736 1068 L 736 1104 L 723 1104 L 723 1068 Z Z" stroke-miterlimit="10"/></g><g transform="translate(10,5) scale(1,1)"><path fill="none" stroke="#000000" d="M 723 1091 L 426 1091" stroke-miterlimit="10" stroke-dasharray="3"/></g><g transform="translate(10,5) scale(1,1)"><path fill="none" stroke="#000000" d="M 436.16267485762415 1086.7904822439841 L 426 1091 L 436.16267485762415 1095.2095177560159" stroke-miterlimit="10"/></g><g transform="translate(10,5) scale(1,1)"><g><path fill="none" stroke="none"/><text fill="#000000" stroke="none" font-family="Arial" font-size="13px" font-style="normal" font-weight="normal" text-decoration="none" x="531" y="1108">33 : refundAmt</text></g></g><g transform="translate(10,5) scale(1,1)"><path fill="none" stroke="#000000" d="M 413 1104 L 98 1104" stroke-miterlimit="10" stroke-dasharray="3"/></g><g transform="translate(10,5) scale(1,1)"><path fill="none" stroke="#000000" d="M 108.16267485762415 1099.7904822439841 L 98 1104 L 108.16267485762415 1108.2095177560159" stroke-miterlimit="10"/></g><g transform="translate(10,5) scale(1,1)"><g><path fill="none" stroke="none"/><text fill="#000000" stroke="none" font-family="Arial" font-size="13px" font-style="normal" font-weight="normal" text-decoration="none" x="212" y="1121">34 : refundAmt</text></g></g><g transform="translate(10,5) scale(1,1)"><path fill="none" stroke="#000000" d="M 98 1168 L 413 1168" stroke-miterlimit="10"/></g><g transform="translate(10,5) scale(1,1)"><path fill="#000000" stroke="none" d="M 402.83732514237585 1172.2095177560159 L 413 1168 L 402.83732514237585 1163.7904822439841"/></g><g transform="translate(10,5) scale(1,1)"><path fill="none" stroke="#000000" d="M 402.83732514237585 1172.2095177560159 L 413 1168 L 402.83732514237585 1163.7904822439841 L 402.83732514237585 1172.2095177560159" stroke-miterlimit="10"/></g><g transform="translate(10,5) scale(1,1)"><g><path fill="none" stroke="none"/><text fill="#000000" stroke="none" font-family="Arial" font-size="13px" font-style="normal" font-weight="normal" text-decoration="none" x="217" y="1165">35 : check_in</text></g></g><g transform="translate(10,5) scale(1,1)"><rect fill="#ffffff" stroke="none" x="413" y="1168" width="13" height="112"/></g><g transform="translate(10,5) scale(1,1)"><path fill="none" stroke="#000000" d="M 413 1168 L 426 1168 L 426 1280 L 413 1280 L 413 1168 Z Z" stroke-miterlimit="10"/></g><g transform="translate(10,5) scale(1,1)"><path fill="none" stroke="#000000" d="M 426 1184 L 723 1184" stroke-miterlimit="10"/></g><g transform="translate(10,5) scale(1,1)"><path fill="#000000" stroke="none" d="M 712.8373251423759 1188.2095177560159 L 723 1184 L 712.8373251423758 1179.7904822439841"/></g><g transform="translate(10,5) scale(1,1)"><path fill="none" stroke="#000000" d="M 712.8373251423759 1188.2095177560159 L 723 1184 L 712.8373251423758 1179.7904822439841 L 712.8373251423759 1188.2095177560159" stroke-miterlimit="10"/></g><g transform="translate(10,5) scale(1,1)"><g><path fill="none" stroke="none"/><text fill="#000000" stroke="none" font-family="Arial" font-size="13px" font-style="normal" font-weight="normal" text-decoration="none" x="500" y="1181">36 : passCamperIdentifier</text></g></g><g transform="translate(10,5) scale(1,1)"><rect fill="#ffffff" stroke="none" x="723" y="1184" width="13" height="64"/></g><g transform="translate(10,5) scale(1,1)"><path fill="none" stroke="#000000" d="M 723 1184 L 736 1184 L 736 1248 L 723 1248 L 723 1184 Z Z" stroke-miterlimit="10"/></g><g transform="translate(10,5) scale(1,1)"><path fill="none" stroke="#000000" d="M 736 1203 L 1017 1203" stroke-miterlimit="10"/></g><g transform="translate(10,5) scale(1,1)"><path fill="none" stroke="#000000" d="M 1006.8373251423759 1207.2095177560159 L 1017 1203 L 1006.8373251423758 1198.7904822439841" stroke-miterlimit="10"/></g><g transform="translate(10,5) scale(1,1)"><g><path fill="none" stroke="none"/><text fill="#000000" stroke="none" font-family="Arial" font-size="13px" font-style="normal" font-weight="normal" text-decoration="none" x="807" y="1200">37 : retriveCheckinForm</text></g></g><g transform="translate(10,5) scale(1,1)"><rect fill="#ffffff" stroke="none" x="1017" y="1203" width="13" height="28"/></g><g transform="translate(10,5) scale(1,1)"><path fill="none" stroke="#000000" d="M 1017 1203 L 1030 1203 L 1030 1231 L 1017 1231 L 1017 1203 Z Z" stroke-miterlimit="10"/></g><g transform="translate(10,5) scale(1,1)"><path fill="none" stroke="#000000" d="M 1017 1218 L 736 1218" stroke-miterlimit="10" stroke-dasharray="3"/></g><g transform="translate(10,5) scale(1,1)"><path fill="none" stroke="#000000" d="M 746.1626748576241 1213.7904822439841 L 736 1218 L 746.1626748576241 1222.2095177560159" stroke-miterlimit="10"/></g><g transform="translate(10,5) scale(1,1)"><g><path fill="none" stroke="none"/><text fill="#000000" stroke="none" font-family="Arial" font-size="13px" font-style="normal" font-weight="normal" text-decoration="none" x="822" y="1235">38 : checklistItems</text></g></g><g transform="translate(10,5) scale(1,1)"><path fill="none" stroke="#000000" d="M 723 1240 L 426 1240" stroke-miterlimit="10" stroke-dasharray="3"/></g><g transform="translate(10,5) scale(1,1)"><path fill="none" stroke="#000000" d="M 436.16267485762415 1235.7904822439841 L 426 1240 L 436.16267485762415 1244.2095177560159" stroke-miterlimit="10"/></g><g transform="translate(10,5) scale(1,1)"><g><path fill="none" stroke="none"/><text fill="#000000" stroke="none" font-family="Arial" font-size="13px" font-style="normal" font-weight="normal" text-decoration="none" x="536" y="1257">39 : checklist</text></g></g><g transform="translate(10,5) scale(1,1)"><path fill="none" stroke="#000000" d="M 413 1264 L 98 1264" stroke-miterlimit="10" stroke-dasharray="3"/></g><g transform="translate(10,5) scale(1,1)"><path fill="none" stroke="#000000" d="M 108.16267485762415 1259.7904822439841 L 98 1264 L 108.16267485762415 1268.2095177560159" stroke-miterlimit="10"/></g><g transform="translate(10,5) scale(1,1)"><g><path fill="none" stroke="none"/><text fill="#000000" stroke="none" font-family="Arial" font-size="13px" font-style="normal" font-weight="normal" text-decoration="none" x="188" y="1281">40 : checklistUserForm</text></g></g><g transform="translate(10,5) scale(1,1)"><path fill="none" stroke="#000000" d="M 98 1336 L 413 1336" stroke-miterlimit="10"/></g><g transform="translate(10,5) scale(1,1)"><path fill="#000000" stroke="none" d="M 402.83732514237585 1340.2095177560159 L 413 1336 L 402.83732514237585 1331.7904822439841"/></g><g transform="translate(10,5) scale(1,1)"><path fill="none" stroke="#000000" d="M 402.83732514237585 1340.2095177560159 L 413 1336 L 402.83732514237585 1331.7904822439841 L 402.83732514237585 1340.2095177560159" stroke-miterlimit="10"/></g><g transform="translate(10,5) scale(1,1)"><g><path fill="none" stroke="none"/><text fill="#000000" stroke="none" font-family="Arial" font-size="13px" font-style="normal" font-weight="normal" text-decoration="none" x="176" y="1333">41 : bunkHouseAssignment</text></g></g><g transform="translate(10,5) scale(1,1)"><rect fill="#ffffff" stroke="none" x="413" y="1336" width="13" height="264"/></g><g transform="translate(10,5) scale(1,1)"><path fill="none" stroke="#000000" d="M 413 1336 L 426 1336 L 426 1600 L 413 1600 L 413 1336 Z Z" stroke-miterlimit="10"/></g><g transform="translate(10,5) scale(1,1)"><path fill="none" stroke="#000000" d="M 426 1360 L 723 1360" stroke-miterlimit="10"/></g><g transform="translate(10,5) scale(1,1)"><path fill="#000000" stroke="none" d="M 712.8373251423759 1364.2095177560159 L 723 1360 L 712.8373251423758 1355.7904822439841"/></g><g transform="translate(10,5) scale(1,1)"><path fill="none" stroke="#000000" d="M 712.8373251423759 1364.2095177560159 L 723 1360 L 712.8373251423758 1355.7904822439841 L 712.8373251423759 1364.2095177560159" stroke-miterlimit="10"/></g><g transform="translate(10,5) scale(1,1)"><g><path fill="none" stroke="none"/><text fill="#000000" stroke="none" font-family="Arial" font-size="13px" font-style="normal" font-weight="normal" text-decoration="none" x="508" y="1357">42 : passRequirements</text></g></g><g transform="translate(10,5) scale(1,1)"><rect fill="#ffffff" stroke="none" x="723" y="1360" width="13" height="224"/></g><g transform="translate(10,5) scale(1,1)"><path fill="none" stroke="#000000" d="M 723 1360 L 736 1360 L 736 1584 L 723 1584 L 723 1360 Z Z" stroke-miterlimit="10"/></g><g transform="translate(10,5) scale(1,1)"><path fill="none" stroke="#000000" d="M 736 1400 L 766 1400 L 766 1420 L 743 1420" stroke-miterlimit="10"/></g><g transform="translate(10,5) scale(1,1)"><path fill="#000000" stroke="none" d="M 753.1626748576241 1415.7904822439841 L 743 1420 L 753.1626748576241 1424.2095177560159"/></g><g transform="translate(10,5) scale(1,1)"><path fill="none" stroke="#000000" d="M 753.1626748576241 1415.7904822439841 L 743 1420 L 753.1626748576241 1424.2095177560159 L 753.1626748576241 1415.7904822439841" stroke-miterlimit="10"/></g><g transform="translate(10,5) scale(1,1)"><g><path fill="none" stroke="none"/><text fill="#000000" stroke="none" font-family="Arial" font-size="13px" font-style="normal" font-weight="normal" text-decoration="none" x="751" y="1389">43 : distributeCampers</text></g></g><g transform="translate(10,5) scale(1,1)"><rect fill="#ffffff" stroke="none" x="730" y="1420" width="13" height="28"/></g><g transform="translate(10,5) scale(1,1)"><path fill="none" stroke="#000000" d="M 730 1420 L 743 1420 L 743 1448 L 730 1448 L 730 1420 Z Z" stroke-miterlimit="10"/></g><g transform="translate(10,5) scale(1,1)"><path fill="none" stroke="#000000" d="M 736 1480 L 1017 1480" stroke-miterlimit="10"/></g><g transform="translate(10,5) scale(1,1)"><path fill="#000000" stroke="none" d="M 1006.8373251423759 1484.2095177560159 L 1017 1480 L 1006.8373251423758 1475.7904822439841"/></g><g transform="translate(10,5) scale(1,1)"><path fill="none" stroke="#000000" d="M 1006.8373251423759 1484.2095177560159 L 1017 1480 L 1006.8373251423758 1475.7904822439841 L 1006.8373251423759 1484.2095177560159" stroke-miterlimit="10"/></g><g transform="translate(10,5) scale(1,1)"><g><path fill="none" stroke="none"/><text fill="#000000" stroke="none" font-family="Arial" font-size="13px" font-style="normal" font-weight="normal" text-decoration="none" x="804" y="1476">44 : alertBunkHouseInfo</text></g></g><g transform="translate(10,5) scale(1,1)"><rect fill="#ffffff" stroke="none" x="1017" y="1480" width="13" height="28"/></g><g transform="translate(10,5) scale(1,1)"><path fill="none" stroke="#000000" d="M 1017 1480 L 1030 1480 L 1030 1508 L 1017 1508 L 1017 1480 Z Z" stroke-miterlimit="10"/></g><g transform="translate(10,5) scale(1,1)"><path fill="none" stroke="#000000" d="M 736 1522 L 1017 1522" stroke-miterlimit="10"/></g><g transform="translate(10,5) scale(1,1)"><path fill="#000000" stroke="none" d="M 1006.8373251423759 1526.2095177560159 L 1017 1522 L 1006.8373251423758 1517.7904822439841"/></g><g transform="translate(10,5) scale(1,1)"><path fill="none" stroke="#000000" d="M 1006.8373251423759 1526.2095177560159 L 1017 1522 L 1006.8373251423758 1517.7904822439841 L 1006.8373251423759 1526.2095177560159" stroke-miterlimit="10"/></g><g transform="translate(10,5) scale(1,1)"><g><path fill="none" stroke="none"/><text fill="#000000" stroke="none" font-family="Arial" font-size="13px" font-style="normal" font-weight="normal" text-decoration="none" x="774" y="1519">45 : assignBunkHouseIdtoCampers</text></g></g><g transform="translate(10,5) scale(1,1)"><rect fill="#ffffff" stroke="none" x="1017" y="1522" width="13" height="28"/></g><g transform="translate(10,5) scale(1,1)"><path fill="none" stroke="#000000" d="M 1017 1522 L 1030 1522 L 1030 1550 L 1017 1550 L 1017 1522 Z Z" stroke-miterlimit="10"/></g><g transform="translate(10,5) scale(1,1)"><path fill="none" stroke="#000000" d="M 723 1536 L 426 1536" stroke-miterlimit="10" stroke-dasharray="3"/></g><g transform="translate(10,5) scale(1,1)"><path fill="none" stroke="#000000" d="M 436.16267485762415 1531.7904822439841 L 426 1536 L 436.16267485762415 1540.2095177560159" stroke-miterlimit="10"/></g><g transform="translate(10,5) scale(1,1)"><g><path fill="none" stroke="none"/><text fill="#000000" stroke="none" font-family="Arial" font-size="13px" font-style="normal" font-weight="normal" text-decoration="none" x="477" y="1553">46 : bunkhouseAssignmentResult</text></g></g><g transform="translate(10,5) scale(1,1)"><path fill="none" stroke="#000000" d="M 413 1572 L 98 1572" stroke-miterlimit="10" stroke-dasharray="3"/></g><g transform="translate(10,5) scale(1,1)"><path fill="none" stroke="#000000" d="M 108.16267485762415 1567.7904822439841 L 98 1572 L 108.16267485762415 1576.2095177560159" stroke-miterlimit="10"/></g><g transform="translate(10,5) scale(1,1)"><g><path fill="none" stroke="none"/><text fill="#000000" stroke="none" font-family="Arial" font-size="13px" font-style="normal" font-weight="normal" text-decoration="none" x="141" y="1589">47 : bunkhouseAssignmentResultTable</text></g></g><g transform="translate(10,5) scale(1,1)"><path fill="none" stroke="#000000" d="M 98 1658 L 413 1658" stroke-miterlimit="10"/></g><g transform="translate(10,5) scale(1,1)"><path fill="#000000" stroke="none" d="M 402.83732514237585 1662.2095177560159 L 413 1658 L 402.83732514237585 1653.7904822439841"/></g><g transform="translate(10,5) scale(1,1)"><path fill="none" stroke="#000000" d="M 402.83732514237585 1662.2095177560159 L 413 1658 L 402.83732514237585 1653.7904822439841 L 402.83732514237585 1662.2095177560159" stroke-miterlimit="10"/></g><g transform="translate(10,5) scale(1,1)"><g><path fill="none" stroke="none"/><text fill="#000000" stroke="none" font-family="Arial" font-size="13px" font-style="normal" font-weight="normal" text-decoration="none" x="166" y="1655">48 : updateBunkhouseRequest</text></g></g><g transform="translate(10,5) scale(1,1)"><rect fill="#ffffff" stroke="none" x="413" y="1658" width="13" height="174"/></g><g transform="translate(10,5) scale(1,1)"><path fill="none" stroke="#000000" d="M 413 1658 L 426 1658 L 426 1832 L 413 1832 L 413 1658 Z Z" stroke-miterlimit="10"/></g><g transform="translate(10,5) scale(1,1)"><path fill="none" stroke="#000000" d="M 426 1688 L 723 1688" stroke-miterlimit="10"/></g><g transform="translate(10,5) scale(1,1)"><path fill="#000000" stroke="none" d="M 712.8373251423759 1692.2095177560159 L 723 1688 L 712.8373251423758 1683.7904822439841"/></g><g transform="translate(10,5) scale(1,1)"><path fill="none" stroke="#000000" d="M 712.8373251423759 1692.2095177560159 L 723 1688 L 712.8373251423758 1683.7904822439841 L 712.8373251423759 1692.2095177560159" stroke-miterlimit="10"/></g><g transform="translate(10,5) scale(1,1)"><g><path fill="none" stroke="none"/><text fill="#000000" stroke="none" font-family="Arial" font-size="13px" font-style="normal" font-weight="normal" text-decoration="none" x="483" y="1685">49 : newBunkhouseAssignment</text></g></g><g transform="translate(10,5) scale(1,1)"><rect fill="#ffffff" stroke="none" x="723" y="1688" width="13" height="112"/></g><g transform="translate(10,5) scale(1,1)"><path fill="none" stroke="#000000" d="M 723 1688 L 736 1688 L 736 1800 L 723 1800 L 723 1688 Z Z" stroke-miterlimit="10"/></g><g transform="translate(10,5) scale(1,1)"><path fill="none" stroke="#000000" d="M 736 1720 L 1017 1720" stroke-miterlimit="10"/></g><g transform="translate(10,5) scale(1,1)"><path fill="#000000" stroke="none" d="M 1006.8373251423759 1724.2095177560159 L 1017 1720 L 1006.8373251423758 1715.7904822439841"/></g><g transform="translate(10,5) scale(1,1)"><path fill="none" stroke="#000000" d="M 1006.8373251423759 1724.2095177560159 L 1017 1720 L 1006.8373251423758 1715.7904822439841 L 1006.8373251423759 1724.2095177560159" stroke-miterlimit="10"/></g><g transform="translate(10,5) scale(1,1)"><g><path fill="none" stroke="none"/><text fill="#000000" stroke="none" font-family="Arial" font-size="13px" font-style="normal" font-weight="normal" text-decoration="none" x="809" y="1717">50 : alterBunkHouseInfo</text></g></g><g transform="translate(10,5) scale(1,1)"><rect fill="#ffffff" stroke="none" x="1017" y="1720" width="13" height="28"/></g><g transform="translate(10,5) scale(1,1)"><path fill="none" stroke="#000000" d="M 1017 1720 L 1030 1720 L 1030 1748 L 1017 1748 L 1017 1720 Z Z" stroke-miterlimit="10"/></g><g transform="translate(10,5) scale(1,1)"><path fill="none" stroke="#000000" d="M 736 1754 L 1017 1754" stroke-miterlimit="10"/></g><g transform="translate(10,5) scale(1,1)"><path fill="#000000" stroke="none" d="M 1006.8373251423759 1758.2095177560159 L 1017 1754 L 1006.8373251423758 1749.7904822439841"/></g><g transform="translate(10,5) scale(1,1)"><path fill="none" stroke="#000000" d="M 1006.8373251423759 1758.2095177560159 L 1017 1754 L 1006.8373251423758 1749.7904822439841 L 1006.8373251423759 1758.2095177560159" stroke-miterlimit="10"/></g><g transform="translate(10,5) scale(1,1)"><g><path fill="none" stroke="none"/><text fill="#000000" stroke="none" font-family="Arial" font-size="13px" font-style="normal" font-weight="normal" text-decoration="none" x="817" y="1751">51 : alterCamperInfo</text></g></g><g transform="translate(10,5) scale(1,1)"><rect fill="#ffffff" stroke="none" x="1017" y="1754" width="13" height="28"/></g><g transform="translate(10,5) scale(1,1)"><path fill="none" stroke="#000000" d="M 1017 1754 L 1030 1754 L 1030 1782 L 1017 1782 L 1017 1754 Z Z" stroke-miterlimit="10"/></g><g transform="translate(10,5) scale(1,1)"><path fill="none" stroke="#000000" d="M 723 1784 L 426 1784" stroke-miterlimit="10" stroke-dasharray="3"/></g><g transform="translate(10,5) scale(1,1)"><path fill="none" stroke="#000000" d="M 436.16267485762415 1779.7904822439841 L 426 1784 L 436.16267485762415 1788.2095177560159" stroke-miterlimit="10"/></g><g transform="translate(10,5) scale(1,1)"><g><path fill="none" stroke="none"/><text fill="#000000" stroke="none" font-family="Arial" font-size="13px" font-style="normal" font-weight="normal" text-decoration="none" x="504" y="1801">52 : updateConfirmation</text></g></g><g transform="translate(10,5) scale(1,1)"><path fill="none" stroke="#000000" d="M 413 1808 L 98 1808" stroke-miterlimit="10" stroke-dasharray="3"/></g><g transform="translate(10,5) scale(1,1)"><path fill="none" stroke="#000000" d="M 108.16267485762415 1803.7904822439841 L 98 1808 L 108.16267485762415 1812.2095177560159" stroke-miterlimit="10"/></g><g transform="translate(10,5) scale(1,1)"><g><path fill="none" stroke="none"/><text fill="#000000" stroke="none" font-family="Arial" font-size="13px" font-style="normal" font-weight="normal" text-decoration="none" x="185" y="1825">53 : updateConfirmation</text></g></g><g transform="translate(10,5) scale(1,1)"><path fill="none" stroke="#000000" d="M 98 1907 L 413 1907" stroke-miterlimit="10"/></g><g transform="translate(10,5) scale(1,1)"><path fill="#000000" stroke="none" d="M 402.83732514237585 1911.2095177560159 L 413 1907 L 402.83732514237585 1902.7904822439841"/></g><g transform="translate(10,5) scale(1,1)"><path fill="none" stroke="#000000" d="M 402.83732514237585 1911.2095177560159 L 413 1907 L 402.83732514237585 1902.7904822439841 L 402.83732514237585 1911.2095177560159" stroke-miterlimit="10"/></g><g transform="translate(10,5) scale(1,1)"><g><path fill="none" stroke="none"/><text fill="#000000" stroke="none" font-family="Arial" font-size="13px" font-style="normal" font-weight="normal" text-decoration="none" x="196" y="1904">54 : tribeAssignment</text></g></g><g transform="translate(10,5) scale(1,1)"><rect fill="#ffffff" stroke="none" x="413" y="1907" width="13" height="237"/></g><g transform="translate(10,5) scale(1,1)"><path fill="none" stroke="#000000" d="M 413 1907 L 426 1907 L 426 2144 L 413 2144 L 413 1907 Z Z" stroke-miterlimit="10"/></g><g transform="translate(10,5) scale(1,1)"><path fill="none" stroke="#000000" d="M 426 1936 L 723 1936" stroke-miterlimit="10"/></g><g transform="translate(10,5) scale(1,1)"><path fill="#000000" stroke="none" d="M 712.8373251423759 1940.2095177560159 L 723 1936 L 712.8373251423758 1931.7904822439841"/></g><g transform="translate(10,5) scale(1,1)"><path fill="none" stroke="#000000" d="M 712.8373251423759 1940.2095177560159 L 723 1936 L 712.8373251423758 1931.7904822439841 L 712.8373251423759 1940.2095177560159" stroke-miterlimit="10"/></g><g transform="translate(10,5) scale(1,1)"><g><path fill="none" stroke="none"/><text fill="#000000" stroke="none" font-family="Arial" font-size="13px" font-style="normal" font-weight="normal" text-decoration="none" x="508" y="1933">55 : passRequirements</text></g></g><g transform="translate(10,5) scale(1,1)"><rect fill="#ffffff" stroke="none" x="723" y="1936" width="13" height="200"/></g><g transform="translate(10,5) scale(1,1)"><path fill="none" stroke="#000000" d="M 723 1936 L 736 1936 L 736 2136 L 723 2136 L 723 1936 Z Z" stroke-miterlimit="10"/></g><g transform="translate(10,5) scale(1,1)"><path fill="none" stroke="#000000" d="M 736 1952 L 766 1952 L 766 1972 L 743 1972" stroke-miterlimit="10"/></g><g transform="translate(10,5) scale(1,1)"><path fill="#000000" stroke="none" d="M 753.1626748576241 1967.7904822439841 L 743 1972 L 753.1626748576241 1976.2095177560159"/></g><g transform="translate(10,5) scale(1,1)"><path fill="none" stroke="#000000" d="M 753.1626748576241 1967.7904822439841 L 743 1972 L 753.1626748576241 1976.2095177560159 L 753.1626748576241 1967.7904822439841" stroke-miterlimit="10"/></g><g transform="translate(10,5) scale(1,1)"><g><path fill="none" stroke="none"/><text fill="#000000" stroke="none" font-family="Arial" font-size="13px" font-style="normal" font-weight="normal" text-decoration="none" x="743" y="1941">56 : distributeCampers</text></g></g><g transform="translate(10,5) scale(1,1)"><rect fill="#ffffff" stroke="none" x="730" y="1972" width="13" height="28"/></g><g transform="translate(10,5) scale(1,1)"><path fill="none" stroke="#000000" d="M 730 1972 L 743 1972 L 743 2000 L 730 2000 L 730 1972 Z Z" stroke-miterlimit="10"/></g><g transform="translate(10,5) scale(1,1)"><path fill="none" stroke="#000000" d="M 736 2027 L 1017 2027" stroke-miterlimit="10"/></g><g transform="translate(10,5) scale(1,1)"><path fill="#000000" stroke="none" d="M 1006.8373251423759 2031.2095177560159 L 1017 2027 L 1006.8373251423758 2022.7904822439841"/></g><g transform="translate(10,5) scale(1,1)"><path fill="none" stroke="#000000" d="M 1006.8373251423759 2031.2095177560159 L 1017 2027 L 1006.8373251423758 2022.7904822439841 L 1006.8373251423759 2031.2095177560159" stroke-miterlimit="10"/></g><g transform="translate(10,5) scale(1,1)"><g><path fill="none" stroke="none"/><text fill="#000000" stroke="none" font-family="Arial" font-size="13px" font-style="normal" font-weight="normal" text-decoration="none" x="826" y="2024">57 : alterTribeInfo</text></g></g><g transform="translate(10,5) scale(1,1)"><rect fill="#ffffff" stroke="none" x="1017" y="2027" width="13" height="28"/></g><g transform="translate(10,5) scale(1,1)"><path fill="none" stroke="#000000" d="M 1017 2027 L 1030 2027 L 1030 2055 L 1017 2055 L 1017 2027 Z Z" stroke-miterlimit="10"/></g><g transform="translate(10,5) scale(1,1)"><path fill="none" stroke="#000000" d="M 736 2075 L 1017 2075" stroke-miterlimit="10"/></g><g transform="translate(10,5) scale(1,1)"><path fill="#000000" stroke="none" d="M 1006.8373251423759 2079.209517756016 L 1017 2075 L 1006.8373251423758 2070.790482243984"/></g><g transform="translate(10,5) scale(1,1)"><path fill="none" stroke="#000000" d="M 1006.8373251423759 2079.209517756016 L 1017 2075 L 1006.8373251423758 2070.790482243984 L 1006.8373251423759 2079.209517756016" stroke-miterlimit="10"/></g><g transform="translate(10,5) scale(1,1)"><g><path fill="none" stroke="none"/><text fill="#000000" stroke="none" font-family="Arial" font-size="13px" font-style="normal" font-weight="normal" text-decoration="none" x="798" y="2072">58 : assignTribetoCampers</text></g></g><g transform="translate(10,5) scale(1,1)"><rect fill="#ffffff" stroke="none" x="1017" y="2075" width="13" height="28"/></g><g transform="translate(10,5) scale(1,1)"><path fill="none" stroke="#000000" d="M 1017 2075 L 1030 2075 L 1030 2103 L 1017 2103 L 1017 2075 Z Z" stroke-miterlimit="10"/></g><g transform="translate(10,5) scale(1,1)"><path fill="none" stroke="#000000" d="M 723 2096 L 426 2096" stroke-miterlimit="10" stroke-dasharray="3"/></g><g transform="translate(10,5) scale(1,1)"><path fill="none" stroke="#000000" d="M 436.16267485762415 2091.790482243984 L 426 2096 L 436.16267485762415 2100.209517756016" stroke-miterlimit="10"/></g><g transform="translate(10,5) scale(1,1)"><g><path fill="none" stroke="none"/><text fill="#000000" stroke="none" font-family="Arial" font-size="13px" font-style="normal" font-weight="normal" text-decoration="none" x="496" y="2113">59 : tribeAssignmentResult</text></g></g><g transform="translate(10,5) scale(1,1)"><path fill="none" stroke="#000000" d="M 413 2122 L 98 2122" stroke-miterlimit="10" stroke-dasharray="3"/></g><g transform="translate(10,5) scale(1,1)"><path fill="none" stroke="#000000" d="M 108.16267485762415 2117.790482243984 L 98 2122 L 108.16267485762415 2126.209517756016" stroke-miterlimit="10"/></g><g transform="translate(10,5) scale(1,1)"><g><path fill="none" stroke="none"/><text fill="#000000" stroke="none" font-family="Arial" font-size="13px" font-style="normal" font-weight="normal" text-decoration="none" x="161" y="2139">60 : tribeAssignmentResultTable</text></g></g><g transform="translate(10,5) scale(1,1)"><path fill="none" stroke="#000000" d="M 98 2208 L 413 2208" stroke-miterlimit="10"/></g><g transform="translate(10,5) scale(1,1)"><path fill="#000000" stroke="none" d="M 402.83732514237585 2212.209517756016 L 413 2208 L 402.83732514237585 2203.790482243984"/></g><g transform="translate(10,5) scale(1,1)"><path fill="none" stroke="#000000" d="M 402.83732514237585 2212.209517756016 L 413 2208 L 402.83732514237585 2203.790482243984 L 402.83732514237585 2212.209517756016" stroke-miterlimit="10"/></g><g transform="translate(10,5) scale(1,1)"><g><path fill="none" stroke="none"/><text fill="#000000" stroke="none" font-family="Arial" font-size="13px" font-style="normal" font-weight="normal" text-decoration="none" x="184" y="2205">61 : updateTribeRequest</text></g></g><g transform="translate(10,5) scale(1,1)"><rect fill="#ffffff" stroke="none" x="413" y="2208" width="13" height="168"/></g><g transform="translate(10,5) scale(1,1)"><path fill="none" stroke="#000000" d="M 413 2208 L 426 2208 L 426 2376 L 413 2376 L 413 2208 Z Z" stroke-miterlimit="10"/></g><g transform="translate(10,5) scale(1,1)"><path fill="none" stroke="#000000" d="M 426 2224 L 723 2224" stroke-miterlimit="10"/></g><g transform="translate(10,5) scale(1,1)"><path fill="#000000" stroke="none" d="M 712.8373251423759 2228.209517756016 L 723 2224 L 712.8373251423758 2219.790482243984"/></g><g transform="translate(10,5) scale(1,1)"><path fill="none" stroke="#000000" d="M 712.8373251423759 2228.209517756016 L 723 2224 L 712.8373251423758 2219.790482243984 L 712.8373251423759 2228.209517756016" stroke-miterlimit="10"/></g><g transform="translate(10,5) scale(1,1)"><g><path fill="none" stroke="none"/><text fill="#000000" stroke="none" font-family="Arial" font-size="13px" font-style="normal" font-weight="normal" text-decoration="none" x="501" y="2221">62 : newTribeAssignment</text></g></g><g transform="translate(10,5) scale(1,1)"><rect fill="#ffffff" stroke="none" x="723" y="2224" width="13" height="120"/></g><g transform="translate(10,5) scale(1,1)"><path fill="none" stroke="#000000" d="M 723 2224 L 736 2224 L 736 2344 L 723 2344 L 723 2224 Z Z" stroke-miterlimit="10"/></g><g transform="translate(10,5) scale(1,1)"><path fill="none" stroke="#000000" d="M 736 2240 L 1017 2240" stroke-miterlimit="10"/></g><g transform="translate(10,5) scale(1,1)"><path fill="#000000" stroke="none" d="M 1006.8373251423759 2244.209517756016 L 1017 2240 L 1006.8373251423758 2235.790482243984"/></g><g transform="translate(10,5) scale(1,1)"><path fill="none" stroke="#000000" d="M 1006.8373251423759 2244.209517756016 L 1017 2240 L 1006.8373251423758 2235.790482243984 L 1006.8373251423759 2244.209517756016" stroke-miterlimit="10"/></g><g transform="translate(10,5) scale(1,1)"><g><path fill="none" stroke="none"/><text fill="#000000" stroke="none" font-family="Arial" font-size="13px" font-style="normal" font-weight="normal" text-decoration="none" x="826" y="2237">63 : alterTribeInfo</text></g></g><g transform="translate(10,5) scale(1,1)"><rect fill="#ffffff" stroke="none" x="1017" y="2240" width="13" height="28"/></g><g transform="translate(10,5) scale(1,1)"><path fill="none" stroke="#000000" d="M 1017 2240 L 1030 2240 L 1030 2268 L 1017 2268 L 1017 2240 Z Z" stroke-miterlimit="10"/></g><g transform="translate(10,5) scale(1,1)"><path fill="none" stroke="#000000" d="M 736 2288 L 1017 2288" stroke-miterlimit="10"/></g><g transform="translate(10,5) scale(1,1)"><path fill="#000000" stroke="none" d="M 1006.8373251423759 2292.209517756016 L 1017 2288 L 1006.8373251423758 2283.790482243984"/></g><g transform="translate(10,5) scale(1,1)"><path fill="none" stroke="#000000" d="M 1006.8373251423759 2292.209517756016 L 1017 2288 L 1006.8373251423758 2283.790482243984 L 1006.8373251423759 2292.209517756016" stroke-miterlimit="10"/></g><g transform="translate(10,5) scale(1,1)"><g><path fill="none" stroke="none"/><text fill="#000000" stroke="none" font-family="Arial" font-size="13px" font-style="normal" font-weight="normal" text-decoration="none" x="817" y="2285">64 : alterCamperInfo</text></g></g><g transform="translate(10,5) scale(1,1)"><rect fill="#ffffff" stroke="none" x="1017" y="2288" width="13" height="28"/></g><g transform="translate(10,5) scale(1,1)"><path fill="none" stroke="#000000" d="M 1017 2288 L 1030 2288 L 1030 2316 L 1017 2316 L 1017 2288 Z Z" stroke-miterlimit="10"/></g><g transform="translate(10,5) scale(1,1)"><path fill="none" stroke="#000000" d="M 723 2318 L 426 2318" stroke-miterlimit="10" stroke-dasharray="3"/></g><g transform="translate(10,5) scale(1,1)"><path fill="none" stroke="#000000" d="M 436.16267485762415 2313.790482243984 L 426 2318 L 436.16267485762415 2322.209517756016" stroke-miterlimit="10"/></g><g transform="translate(10,5) scale(1,1)"><g><path fill="none" stroke="none"/><text fill="#000000" stroke="none" font-family="Arial" font-size="13px" font-style="normal" font-weight="normal" text-decoration="none" x="504" y="2335">65 : updateConfirmation</text></g></g><g transform="translate(10,5) scale(1,1)"><path fill="none" stroke="#000000" d="M 413 2352 L 98 2352" stroke-miterlimit="10" stroke-dasharray="3"/></g><g transform="translate(10,5) scale(1,1)"><path fill="none" stroke="#000000" d="M 108.16267485762415 2347.790482243984 L 98 2352 L 108.16267485762415 2356.209517756016" stroke-miterlimit="10"/></g><g transform="translate(10,5) scale(1,1)"><g><path fill="none" stroke="none"/><text fill="#000000" stroke="none" font-family="Arial" font-size="13px" font-style="normal" font-weight="normal" text-decoration="none" x="185" y="2369">66 : updateConfirmation</text></g></g></g></svg>